<?xml version="1.0" standalone="no"?>
<!DOCTYPE svg PUBLIC "-//W3C//DTD SVG 20010904//EN"
 "http://www.w3.org/TR/2001/REC-SVG-20010904/DTD/svg10.dtd">
<svg version="1.0" xmlns="http://www.w3.org/2000/svg"
 width="225.000000pt" height="225.000000pt" viewBox="0 0 225.000000 225.000000"
 preserveAspectRatio="xMidYMid meet">

<g transform="translate(0.000000,225.000000) scale(0.100000,-0.100000)"
fill="#000000" stroke="none">
<path d="M520 1819 c-77 -31 -118 -119 -91 -192 5 -13 116 -129 245 -257 130
-129 236 -238 236 -244 0 -6 -106 -117 -235 -246 -159 -159 -239 -246 -246
-268 -37 -111 84 -224 194 -183 14 6 130 116 258 245 128 130 237 236 243 236
6 0 119 -108 251 -239 154 -154 250 -242 268 -246 99 -25 201 72 182 173 -6
31 -43 73 -246 277 -131 132 -239 245 -239 250 0 6 104 114 231 240 127 127
237 242 245 257 32 61 5 138 -65 185 -39 26 -90 30 -129 9 -15 -8 -130 -118
-257 -245 -126 -127 -234 -231 -240 -231 -6 0 -114 104 -240 231 -127 127
-244 237 -262 245 -37 16 -67 17 -103 3z"/>
</g>
</svg>
